

<html><head><meta charset="UTF-8"><title>avprobe 探测媒体类型
</title><meta name="viewport" content="width=device-width, initial-scala=1.0"></head><body><div id="markdown">






<h1 id="avprobe-">avprobe 探测媒体类型</h1>
<p>avprobe 00.flv输出:</p>
<pre><code class="lang-text">avprobe version 0.8.6-4:0.8.6-0ubuntu0.12.04.1, Copyright (c) 2007-2013 the Libav developers
  built on Apr  2 2013 17:00:59 with gcc 4.6.3
[flv @ 0x8068240] Estimating duration from bitrate, this may be inaccurate  // 由比特率估计持续时间，文件或许有错误
Input #0, flv, from &#39;00.flv&#39;: // 第0个输入，是flv，文件名00.flv
  Metadata: // 第0个输入，是flv，文件名00.flv
    metadatacreator : modify by youku.com in 20090909  // 元数据创建者
    hasKeyframes    : true   // 是否有关键真
    hasVideo        : true  // 是否有视频
    hasAudio        : true  // 是否有音频
    hasMetadata     : true  // 是否有元数据
    canSeekToEnd    : false   // 是否能找到结尾
    datasize        : 11977380  // 数据大小
    videosize       : 10087249  // 视频大小
    audiosize       : 1827867  // 音频大小
    lasttimestamp   : 426  // 最后时间戳
    lastkeyframetimestamp: 420  // 最后关键帧时间戳
    lastkeyframelocation: 11758628  // 最后关键帧位置
  Duration: 00:07:05.93, start: 0.000000, bitrate: 220 kb/s  // 持续时间  开始时间 比特率
</code></pre>
<p><code>Stream #0.0: Video: h264 (High), yuv420p, 320x240 [PAR 1:1 DAR 4:3], 188 kb/s, 15 tbr, 1k tbn, 30 tbc  //数据流0.0 视频 h264编码 // yuv420p编码方式</code> <a href="http://blog.csdn.net/sphone89/article/details/7762237">转</a>  </p>
<pre><code class="lang-text">// PAR - pixel aspect ratio大多数情况为1:1,就是一个正方形像素，否则为长方形像素
</code></pre>
<p><code>// DAR - display aspect ratio就是视频播放时，我们看到的图像宽高的比例，缩放视频也要按这个比例来，否则会使图像看起来被压扁或者拉长了似的。</code> <a href="http://blog.csdn.net/qiuchangyong/article/details/6881610">转</a></p>
<pre><code class="lang-text">// 视频比特率188kb/s 
// tbr代表帧率，tbr is guessed from the video stream and is the value users want to see when they look for the video frame rate
// tbn代表文件层（st）的时间精度，即1S=1200k，和duration相关；the time base in AVStream that has come from the container
</code></pre>
<p><code>// tbc代表视频层（st-&gt;codec）的时间精度，即1S=50，和strem-&gt;duration和时间戳相关。the time base in AVCodecConten生意xt 
// for the codec used for a particular stream</code> <a href="http://blog.chinaunix.net/uid-26000296-id-3302703.html">转</a></p>
<pre><code class="lang-text">    Stream #0.1: Audio: aac, 44100 Hz, stereo, s16, 32 kb/s // 数据流0.0 音频 aac编码 
// 44100Hz，是采样频率以及播放频率，就是说当时录MP3的时候，每秒是以44100次采样录制的，而现在则以同样采样频率放出来
// stereo立体声（双声道）
// s16 16位的数据（描述不清楚）
</code></pre>
<p><code>// 音频比特率32kb/s</code> <a href="http://zhidao.baidu.com/link?url=Qy8Z5Wh6N1Is8l6UkBOQuiYh0nv2Thhejr--R6qmGY5s-nsIilKJ-hMMko3z7CiPnbfak92nejnlT-akNfqYUa">转</a> <a href="http://bbs.csdn.net/topics/390808323">转</a></p>
<hr>
<pre><code class="lang-text">avprobe 00trans.flv（文件由avconv -i 00.flv 00trans.flv）输出：
avprobe version 0.8.6-4:0.8.6-0ubuntu0.12.04.1, Copyright (c) 2007-2013 the Libav developers
  built on Apr  2 2013 17:00:59 with gcc 4.6.3
[flv @ 0x8068240] Estimating duration from bitrate, this may be inaccurate  // 由比特率估计持续时间，文件或许有错误
Input #0, flv, from &#39;whole.flv&#39;: // 第0个输入，是flv，文件名00.flv
  Metadata: // 第0个输入，是flv，文件名00.flv
    metadatacreator : modify by youku.com in 20090909  // 元数据创建者
    hasKeyframes    : true   // 是否有关键真
    hasVideo        : true  // 是否有视频
    hasAudio        : true  // 是否有音频
    hasMetadata     : true  // 是否有元数据
    canSeekToEnd    : false   // 是否能找到结尾
    datasize        : 11977380  // 数据大小
    videosize       : 10087249  // 视频大小
    audiosize       : 1827867  // 音频大小
    lasttimestamp   : 426  // 最后时间戳
    lastkeyframetimestamp: 420  // 最后关键帧时间戳
    lastkeyframelocation: 11758628  // 最后关键帧位置
    encoder         : Lavf53.21.1   // 编码器是Lavf53.21.1
  Duration: 00:07:06.13, start: 0.000000, bitrate: 400 kb/s // 持续时间 开始时间 比特率
    Stream #0.0: Video: flv, yuv420p, 320x240, 200 kb/s, 15 tbr, 1k tbn, 1k tbc
// 数据流0.0 视频 flv编码 yuv420p编码方式 视频尺寸320*240 视频比特率200kb/s 帧率15 文件层时间精度1k 视频层时间精度1k
    Stream #0.1: Audio: mp3, 44100 Hz, stereo, s16, 200 kb/s 
// 数据流0.1 音频 mp3编码 采样频率44100Hz 双声道 16位的数据（描述不清楚） 音频比特率200kb/s
</code></pre>


</div>
<script src="../js/jquery-1.12.3.min.js" charset="utf-8"></script>
<link rel="stylesheet" href="../css/highlight.min.css">
<script src="../js/highlight.min.js"></script>
<script>hljs.initHighlightingOnLoad();</script>
<script type="text/javascript">
jQuery(function ($) {
});
</script></body></html>

